<svg height="51" viewBox="0 0 65 51" width="65" xmlns="http://www.w3.org/2000/svg"><g fill="none" fill-rule="evenodd"><path d="m.78589406 19.2489901.77812901-3.8075772c.07602514-.3727218.36856843-.6632787.7416514-.7369563l2.68363318-.5301895c.86246094-.1704697 1.46903679.8272474.92060843 1.5145435l-3.46176219 4.3377668c-.61849429.7752397-1.86090033.1939454-1.66225983-.7775873" fill="#0088c9"/><path d="m12.7639163 14.072509-3.55873489 4.4119861c-.6071176.7528475-1.81900524.2136288-1.66641322-.7412903l1.30976323-8.20006043c.06175914-.38662665.35610825-.69506118.73948441-.77505912l6.37509597-1.32818263c.8678785-.18076285 1.483664.82634449.92729 1.51634936z" fill="#d8e031"/><g fill="#0088c9"><path d="m17.7853134 17.160213 2.151096-13.43929396c.0608563-.38012569.3465374-.68512915.7217874-.77090573l12.8031026-2.92434934c.9018279-.20586379 1.530796.87383762.9067036 1.55679978l-14.9541987 16.36364335c-.6318573.6914495-1.7765684.1392289-1.6284909-.7858941"/><path d="m3.97587992 48.2760015c0 1.8612615-1.3110273 2.1996727-1.98803025 2.1996727-.67682236 0-1.98784967-.3384112-1.98784967-2.1996727v-16.3271657c0-1.8609003 1.31102731-2.1996727 1.98784967-2.1996727.67700295 0 1.98803025.3387724 1.98803025 2.1996727z"/><path d="m14.1272763 32.6681492c-1.818644 0-3.7221618.718898-3.7221618 2.6224158 0 1.6918753 1.5226697 2.3262608 4.5683704 3.0032638 3.8068549.8458473 6.725245 2.3685171 6.725245 5.9216539 0 4.737576-3.9338042 6.471527-7.9943773 6.471527-2.4109539 0-4.9067815-.7611543-6.59865682-2.2417484-.67682236-.5921293-.84602795-1.2265148-.84602795-1.6071822 0-1.0154142.71943978-1.776749 1.73449274-1.776749.46517993 0 .93035987.1692056 1.48059406.6345661 1.26877107 1.0999266 2.66485257 1.7765684 4.31411057 1.7765684 1.9878496 0 3.9760605-.718898 3.9760605-2.9185707 0-1.8612615-1.8190053-2.5379033-5.2450122-3.3414944-2.6648526-.6347467-5.83732199-1.7344928-5.83732199-5.5411671 0-4.3144717 3.76459869-6.1334769 7.57163419-6.1334769 2.1572358 0 4.3144717.6347467 5.7947046 1.9035177.761696.6343856.9309016 1.226876.9309016 1.6073628 0 .9305405-.6766418 1.7341316-1.7343122 1.7341316-.3806674 0-.8039523-.1692056-1.2689516-.5921293-1.1844391-1.0995654-2.4954665-1.5224891-3.8492918-1.5224891"/><path d="m34.7687693 32.8372826c-4.0607536 0-6.7676819 3.4261874-6.7676819 7.275118 0 3.8494724 2.7069283 7.233223 6.7676819 7.233223 4.3569085 0 6.6829888-3.5107 6.6829888-7.2754792 0-3.7644181-2.3260803-7.2328618-6.6829888-7.2328618zm-10.4900243-12.8166464c0-1.8610809 1.3113885-2.199492 1.9880302-2.199492.6768224 0 1.9882109.3384111 1.9882109 2.199492v13.0703644h.1267687c1.3538253-1.945774 3.8491112-3.5531368 7.1483493-3.5531368 5.9642714 0 10.0248444 4.6104461 10.0248444 10.5322806 0 5.8793976-3.9339848 10.6169736-10.1093569 10.6169736-2.8340582 0-5.6681164-1.3112079-7.2332229-3.7221618h-.0845126v1.3957204c0 1.8190052-1.3112078 2.1149796-1.9033371 2.1149796-.6343855 0-1.945774-.2959744-1.945774-2.1149796z"/></g><path d="m65.0096005 48.4875356c0 1.0999266-.8458473 1.9880303-1.9878496 1.9880303-.5077974 0-1.0573092-.1267688-1.7765684-1.0573092l-5.7948852-7.1485299-6.006347 7.2754792c-.6343855.8035911-1.2691322.9303599-1.6920559.9303599-1.0573092 0-1.8609004-.7613349-1.8609004-1.8188247 0-.3806674.1692056-.9305405.6766418-1.564926l6.3447582-7.4869411-5.5411671-6.4715269c-.5074361-.549873-.6766417-1.0999266-.6766417-1.4805941 0-1.1418217.8881036-1.9035177 1.945774-1.9035177.5076167 0 1.0995654.1271299 1.7763878 1.0152335l5.0335503 6.3447582 5.1604996-6.4715269c.5498731-.7190786 1.1844392-.8884648 1.6494385-.8884648 1.0152336 0 1.8190053.7192592 1.8190053 1.7765684 0 .3384112-.0846931.8882842-.5923099 1.4805941l-5.5832427 6.55622 6.4292707 7.402248c.5500536.6345661.6766417 1.1420023.6766417 1.5226697" fill="#d8e031"/></g></svg>